REM DIRINDEX 1\5,1\2\6,1\2\7,1\3\8,1\3\9,1\4\10,1\4\11,1\4\12
REM DIRNAME folder01,folder02,folder03,folder04,folder05,folder06,folder07,folder08,folder09,folder10,folder11,folder12
TITLE ""
FILE "EJE_DB3000_5th_5C_15.mp3" MP3
  TRACK 01 AUDIO
    TITLE "0:"
    INDEX 01 00:00:00
  TRACK 02 AUDIO
    TITLE "10:cjc026_10698"
    INDEX 01 00:00:05
  TRACK 03 AUDIO
    TITLE "0:"
    INDEX 01 00:02:12
  TRACK 04 AUDIO
    TITLE "11:cjc026_10699"
    INDEX 01 00:02:40
  TRACK 05 AUDIO
    TITLE "0:"
    INDEX 01 00:03:43
  TRACK 06 AUDIO
    TITLE "12:cjc026_10700"
    INDEX 01 00:03:66
  TRACK 07 AUDIO
    TITLE "0:"
    INDEX 01 00:06:00
  TRACK 08 AUDIO
    TITLE "10:cjc026_10701"
    INDEX 01 00:06:26
  TRACK 09 AUDIO
    TITLE "0:"
    INDEX 01 00:07:21
  TRACK 10 AUDIO
    TITLE "11:cjc026_10702"
    INDEX 01 00:07:47
  TRACK 11 AUDIO
    TITLE "0:"
    INDEX 01 00:08:38
  TRACK 12 AUDIO
    TITLE "12:cjc026_10703"
    INDEX 01 00:08:64
  TRACK 13 AUDIO
    TITLE "0:"
    INDEX 01 00:09:57
  TRACK 14 AUDIO
    TITLE "10:cjc026_10704"
    INDEX 01 00:10:10
  TRACK 15 AUDIO
    TITLE "0:"
    INDEX 01 00:11:01
  TRACK 16 AUDIO
    TITLE "11:cjc026_10705"
    INDEX 01 00:11:29
  TRACK 17 AUDIO
    TITLE "0:"
    INDEX 01 00:12:20
  TRACK 18 AUDIO
    TITLE "12:cjc026_10706"
    INDEX 01 00:12:46
  TRACK 19 AUDIO
    TITLE "0:"
    INDEX 01 00:13:37
  TRACK 20 AUDIO
    TITLE "10:cjc026_10707"
    INDEX 01 00:13:65
  TRACK 21 AUDIO
    TITLE "0:"
    INDEX 01 00:14:68
  TRACK 22 AUDIO
    TITLE "11:cjc026_10708"
    INDEX 01 00:15:23
  TRACK 23 AUDIO
    TITLE "0:"
    INDEX 01 00:16:14
  TRACK 24 AUDIO
    TITLE "12:cjc026_10709"
    INDEX 01 00:16:40
  TRACK 25 AUDIO
    TITLE "0:"
    INDEX 01 00:17:43
  TRACK 26 AUDIO
    TITLE "10:cjc026_10710"
    INDEX 01 00:17:72
  TRACK 27 AUDIO
    TITLE "0:"
    INDEX 01 00:18:64
  TRACK 28 AUDIO
    TITLE "11:cjc026_10711"
    INDEX 01 00:19:16
  TRACK 29 AUDIO
    TITLE "0:"
    INDEX 01 00:20:20
  TRACK 30 AUDIO
    TITLE "12:cjc026_10712"
    INDEX 01 00:20:47
  TRACK 31 AUDIO
    TITLE "0:"
    INDEX 01 00:21:39
  TRACK 32 AUDIO
    TITLE "10:cjc026_10713"
    INDEX 01 00:21:66
  TRACK 33 AUDIO
    TITLE "0:"
    INDEX 01 00:22:58
  TRACK 34 AUDIO
    TITLE "11:cjc026_10714"
    INDEX 01 00:23:08
  TRACK 35 AUDIO
    TITLE "0:"
    INDEX 01 00:24:06
  TRACK 36 AUDIO
    TITLE "12:cjc026_10715"
    INDEX 01 00:24:33
  TRACK 37 AUDIO
    TITLE "0:"
    INDEX 01 00:25:23
  TRACK 38 AUDIO
    TITLE "10:cjc026_10716"
    INDEX 01 00:25:50
  TRACK 39 AUDIO
    TITLE "0:"
    INDEX 01 00:26:54
  TRACK 40 AUDIO
    TITLE "11:cjc026_10717"
    INDEX 01 00:27:06
  TRACK 41 AUDIO
    TITLE "0:"
    INDEX 01 00:28:04
  TRACK 42 AUDIO
    TITLE "12:cjc026_10718"
    INDEX 01 00:28:31
  TRACK 43 AUDIO
    TITLE "0:"
    INDEX 01 00:29:31
  TRACK 44 AUDIO
    TITLE "10:cjc026_10719"
    INDEX 01 00:29:60
  TRACK 45 AUDIO
    TITLE "0:"
    INDEX 01 00:30:52
  TRACK 46 AUDIO
    TITLE "11:cjc026_10720"
    INDEX 01 00:31:02
  TRACK 47 AUDIO
    TITLE "0:"
    INDEX 01 00:31:65
  TRACK 48 AUDIO
    TITLE "12:cjc026_10721"
    INDEX 01 00:32:15
  TRACK 49 AUDIO
    TITLE "0:"
    INDEX 01 00:33:07
  TRACK 50 AUDIO
    TITLE "10:cjc026_10722"
    INDEX 01 00:33:32
  TRACK 51 AUDIO
    TITLE "0:"
    INDEX 01 00:34:38
  TRACK 52 AUDIO
    TITLE "11:cjc026_10723"
    INDEX 01 00:34:65
  TRACK 53 AUDIO
    TITLE "0:"
    INDEX 01 00:35:68
  TRACK 54 AUDIO
    TITLE "12:cjc026_10724"
    INDEX 01 00:36:19
  TRACK 55 AUDIO
    TITLE "0:"
    INDEX 01 00:37:22
  TRACK 56 AUDIO
    TITLE "10:cjc026_10725"
    INDEX 01 00:37:50
  TRACK 57 AUDIO
    TITLE "0:"
    INDEX 01 00:38:57
  TRACK 58 AUDIO
    TITLE "11:cjc026_10726"
    INDEX 01 00:39:07
  TRACK 59 AUDIO
    TITLE "0:"
    INDEX 01 00:40:26
  TRACK 60 AUDIO
    TITLE "12:cjc026_10727"
    INDEX 01 00:40:52
  TRACK 61 AUDIO
    TITLE "0:"
    INDEX 01 00:41:57
  TRACK 62 AUDIO
    TITLE "10:cjc026_10728"
    INDEX 01 00:42:10
  TRACK 63 AUDIO
    TITLE "0:"
    INDEX 01 00:43:03
  TRACK 64 AUDIO
    TITLE "11:cjc026_10729"
    INDEX 01 00:43:31
  TRACK 65 AUDIO
    TITLE "0:"
    INDEX 01 00:44:18
  TRACK 66 AUDIO
    TITLE "12:cjc026_10730"
    INDEX 01 00:44:44
  TRACK 67 AUDIO
    TITLE "0:"
    INDEX 01 00:45:37
  TRACK 68 AUDIO
    TITLE "10:cjc026_10731"
    INDEX 01 00:45:67
  TRACK 69 AUDIO
    TITLE "0:"
    INDEX 01 00:47:09
  TRACK 70 AUDIO
    TITLE "11:cjc026_10732"
    INDEX 01 00:47:30
  TRACK 71 AUDIO
    TITLE "0:"
    INDEX 01 00:48:44
  TRACK 72 AUDIO
    TITLE "12:cjc026_10733"
    INDEX 01 00:48:69
  TRACK 73 AUDIO
    TITLE "0:"
    INDEX 01 00:50:11
  TRACK 74 AUDIO
    TITLE "10:cjc026_10734"
    INDEX 01 00:50:37
  TRACK 75 AUDIO
    TITLE "0:"
    INDEX 01 00:51:58
  TRACK 76 AUDIO
    TITLE "11:cjc026_10735"
    INDEX 01 00:52:04
  TRACK 77 AUDIO
    TITLE "0:"
    INDEX 01 00:53:19
  TRACK 78 AUDIO
    TITLE "12:cjc026_10736"
    INDEX 01 00:53:43
  TRACK 79 AUDIO
    TITLE "0:"
    INDEX 01 00:54:64
